<?xml version="1.0" standalone="no"?>
<!DOCTYPE svg PUBLIC "-//W3C//DTD SVG 20010904//EN"
 "http://www.w3.org/TR/2001/REC-SVG-20010904/DTD/svg10.dtd">
<svg version="1.0" xmlns="http://www.w3.org/2000/svg"
 width="512.000000pt" height="512.000000pt" viewBox="0 0 512.000000 512.000000"
 preserveAspectRatio="xMidYMid meet">
<metadata>
Created by potrace 1.11, written by Peter Selinger 2001-2013
</metadata>
<g transform="translate(0.000000,512.000000) scale(0.100000,-0.100000)"
fill="#000000" stroke="none">
<path d="M2398 5115 c-1 -2 -30 -6 -63 -9 -207 -20 -432 -85 -630 -182 -167
-82 -217 -113 -345 -211 -129 -98 -227 -192 -235 -225 -4 -14 -2 -36 5 -48 10
-19 4 -30 -52 -99 -52 -65 -66 -77 -83 -71 -51 19 -101 -37 -192 -215 -91
-175 -144 -321 -182 -499 -23 -103 -26 -126 -39 -263 -37 -389 66 -830 274
-1175 41 -67 46 -103 28 -189 -14 -64 -13 -246 1 -319 15 -78 65 -205 111
-282 44 -73 148 -192 214 -243 90 -72 206 -127 324 -157 44 -11 92 -26 108
-34 66 -34 105 -104 112 -199 5 -73 26 -115 56 -115 19 0 20 -7 20 -105 0 -98
-1 -105 -20 -105 -35 0 -52 -42 -51 -127 2 -104 8 -132 37 -170 43 -57 84 -70
216 -72 90 -2 124 2 148 14 27 14 35 14 76 0 62 -21 244 -21 285 1 28 14 34
14 70 0 55 -22 245 -22 292 0 30 14 37 15 63 1 44 -22 252 -24 296 -1 46 23
67 43 89 86 17 33 19 67 23 345 3 291 5 311 25 350 36 72 96 114 180 128 101
17 278 105 351 174 40 38 49 66 31 100 -8 13 -2 26 25 55 19 20 34 39 34 42 0
2 12 21 28 42 20 28 33 36 51 34 43 -7 69 17 95 87 60 161 74 307 45 479 l-12
73 37 67 c141 259 227 474 260 657 29 154 40 267 39 390 0 94 -12 286 -18 296
-2 3 -7 28 -11 55 -26 195 -140 497 -262 694 -230 371 -567 655 -970 814 -96
38 -322 100 -405 111 -27 4 -59 9 -70 11 -25 6 -403 14 -409 9z"/>
</g>
</svg>
